<svg viewBox="-28 0 512 512.001" xmlns="http://www.w3.org/2000/svg">
  <path d="M104.36 151.625H18.046C8.37 151.625.5 159.496.5 169.172v325.285C.5 504.129 8.371 512 18.047 512h86.312c9.672 0 17.543-7.871 17.543-17.543V169.172c0-9.676-7.87-17.547-17.543-17.547zm-12.5 330.332H30.542V181.668h61.316zm0 0M61.203 0C27.453 0 0 27.453 0 61.2c0 33.75 27.453 61.202 61.203 61.202 33.742 0 61.2-27.453 61.2-61.203C122.402 27.453 94.948 0 61.202 0zm0 92.36c-17.183 0-31.16-13.977-31.16-31.16 0-17.18 13.977-31.157 31.16-31.157 17.18 0 31.156 13.977 31.156 31.156 0 17.18-13.976 31.16-31.156 31.16zm0 0M401.047 189.762c-20.633-17.223-46.863-26.434-73.832-25.934a113.183 113.183 0 00-47.95 11.66v-7.101c0-9.254-7.503-16.758-16.757-16.758h-87.883c-9.254 0-16.758 7.504-16.758 16.758v326.855c0 9.258 7.504 16.758 16.758 16.758h89.617c8.297 0 15.024-6.727 15.024-15.02V302.102c0-16.684 13.054-30.801 29.726-31.297 17.328-.512 31.586 13.43 31.586 30.644v195.844c0 8.121 6.586 14.707 14.707 14.707h86.13c8.12 0 14.706-6.586 14.706-14.707V307.406c0-45.547-20.074-88.43-55.074-117.644zm25.031 292.195h-55.453V301.449c0-33.469-27.23-60.699-60.703-60.699-33.469 0-60.7 27.23-60.7 60.7v180.507H187.91V181.668h61.313V203.5h.02a14.948 14.948 0 003.757 9.957c5.496 6.211 14.992 6.79 21.203 1.29a83.224 83.224 0 0153.567-20.884c19.761-.375 38.94 6.367 54.027 18.961 28.144 23.492 44.281 57.965 44.281 94.582zm0 0"/>
</svg>