<svg viewBox="0 0 24 24" xmlns="http://www.w3.org/2000/svg">
  <path d="M3.424 23.25c0 .574.618.933 1.118.654l4.091-2.303c3.784 1.024 7.851.271 10.943-2.036C22.387 17.468 24 14.354 24 11.022 24 4.944 18.617 0 12 0S0 4.944 0 11.022c0 2.916 1.213 5.637 3.424 7.699zM1.5 11.022C1.5 5.771 6.21 1.5 12 1.5s10.5 4.271 10.5 9.522c0 2.854-1.393 5.53-3.821 7.341-2.799 2.087-6.512 2.728-9.928 1.712a.753.753 0 00-.582.065l-3.246 1.827v-3.579a.752.752 0 00-.254-.563C2.625 16.027 1.5 13.611 1.5 11.022z"/>
  <path d="M4.835 15.171l5.509-2.755 2.618 2.69c.343.353.82.258 1.072.004l6-6.083c.595-.604-.12-1.58-.875-1.195l-5.509 2.812-2.614-2.669A.749.749 0 009.97 7.97l-6 6c-.6.6.11 1.58.865 1.201zm5.66-5.605l2.47 2.521c.23.235.586.292.876.143l1.866-.952-2.203 2.233-2.466-2.535a.75.75 0 00-.873-.148l-1.866.933z"/>
</svg>