<svg viewBox="0 0 24 24" xmlns="http://www.w3.org/2000/svg">
  <path d="M18.5 24h-13A2.503 2.503 0 013 21.5v-19C3 1.122 4.121 0 5.5 0h13C19.879 0 21 1.122 21 2.5v19c0 1.378-1.121 2.5-2.5 2.5zM5.5 1C4.673 1 4 1.673 4 2.5v19c0 .827.673 1.5 1.5 1.5h13c.827 0 1.5-.673 1.5-1.5v-19c0-.827-.673-1.5-1.5-1.5z"/>
  <path d="M17.5 17h-11a.5.5 0 010-1h11a.5.5 0 010 1zM17.5 13h-11a.5.5 0 010-1h11a.5.5 0 010 1zM17.5 21h-11a.5.5 0 010-1h11a.5.5 0 010 1zM10.5 9h-2C7.673 9 7 8.327 7 7.5v-3C7 3.673 7.673 3 8.5 3h2a.5.5 0 010 1h-2a.5.5 0 00-.5.5v3a.5.5 0 00.5.5h2a.5.5 0 010 1zM15 9a.5.5 0 01-.479-.356l-1.5-5a.5.5 0 11.957-.288L15 6.76l1.021-3.403a.5.5 0 11.957.288l-1.5 5A.499.499 0 0115 9z"/>
</svg>